<?xml version="1.0" encoding="utf-8"?>
<!-- Generator: Adobe Illustrator 23.0.6, SVG Export Plug-In . SVG Version: 6.00 Build 0)  -->
<svg version="1.1" id="Layer_1" xmlns="http://www.w3.org/2000/svg" xmlns:xlink="http://www.w3.org/1999/xlink" x="0px" y="0px"
	 viewBox="0 0 141.73 141.73" style="enable-background:new 0 0 141.73 141.73;" xml:space="preserve">
<style type="text/css">
	.st0{fill:#DEDEDE;}
	.st1{fill:#F5F4F5;}
	.st2{fill:#646464;}
	.st3{fill:#D76B6A;}
</style>
<path class="st0" d="M136.03,141.87H5.64c-3.13,0-5.67-2.54-5.67-5.67V5.8c0-3.13,2.54-5.67,5.67-5.67h130.39
	c3.13,0,5.67,2.54,5.67,5.67V136.2C141.7,139.33,139.17,141.87,136.03,141.87z"/>
<path class="st1" d="M125.13,129.29H15.49c-3.13,0-5.67-2.54-5.67-5.67V13.98c0-3.13,2.54-5.67,5.67-5.67h109.64
	c3.13,0,5.67,2.54,5.67,5.67v109.64C130.8,126.75,128.26,129.29,125.13,129.29z"/>
<g>
	<path class="st2" d="M39.75,48.41l-3.79,3.94v10.48h-4.09v-31h4.09v15.33l13.78-15.33h4.94l-12.2,13.69l13.16,17.31h-4.9
		L39.75,48.41z"/>
</g>
<g>
	<path class="st3" d="M108.75,77.02v31h-4.09V80.36H93.55L93,92.66c-0.21,4.12-0.64,7.22-1.27,9.29s-1.56,3.6-2.78,4.57
		c-1.22,0.97-2.85,1.47-4.9,1.5h-1.34v-3.34l0.85-0.04c1.32-0.1,2.33-0.53,3.04-1.29s1.25-1.97,1.62-3.63
		c0.37-1.66,0.63-4.22,0.79-7.67l0.64-15.03H108.75z"/>
</g>
</svg>
